<svg xmlns="http://www.w3.org/2000/svg" xmlns:xlink="http://www.w3.org/1999/xlink" version="1.1" width="465px" height="559px" style="shape-rendering:geometricPrecision; text-rendering:geometricPrecision; image-rendering:optimizeQuality; fill-rule:evenodd; clip-rule:evenodd">
<g><path style="opacity:0.987" fill="#440100" d="M 230.5,-0.5 C 231.5,-0.5 232.5,-0.5 233.5,-0.5C 310.1,34.9277 387.1,69.5944 464.5,103.5C 464.5,105.833 464.5,108.167 464.5,110.5C 446.354,218.042 428.187,325.709 410,433.5C 350.32,475.03 290.82,516.696 231.5,558.5C 230.833,558.5 230.167,558.5 229.5,558.5C 171.327,517.819 112.827,477.486 54,437.5C 36.1346,327.309 17.9679,217.309 -0.5,107.5C -0.5,106.5 -0.5,105.5 -0.5,104.5C 76.6832,69.7389 153.683,34.7389 230.5,-0.5 Z M 230.5,27.5 C 299.037,57.433 367.37,87.933 435.5,119C 436.081,119.893 436.415,120.893 436.5,122C 420.1,220.9 403.433,319.733 386.5,418.5C 334.5,454.833 282.5,491.167 230.5,527.5C 178.897,492.719 127.731,457.386 77,421.5C 60.7135,321.115 44.2135,220.781 27.5,120.5C 95.1497,89.2915 162.816,58.2915 230.5,27.5 Z"/></g>
<g><path style="opacity:0.946" fill="#f79300" d="M 133.5,138.5 C 136.731,140.22 139.564,142.553 142,145.5C 170.009,177.674 198.176,209.674 226.5,241.5C 262.5,212.5 298.5,183.5 334.5,154.5C 343.022,164.521 351.356,174.688 359.5,185C 324.425,213.953 289.259,242.786 254,271.5C 253.333,272.167 253.333,272.833 254,273.5C 259.021,279.02 263.854,284.686 268.5,290.5C 259.043,298.787 249.71,307.287 240.5,316C 239.833,316.667 239.167,316.667 238.5,316C 233,309.833 227.5,303.667 222,297.5C 215.333,302.833 208.667,308.167 202,313.5C 193.643,303.31 185.476,292.977 177.5,282.5C 183.647,277.52 189.647,272.354 195.5,267C 165.314,232.982 135.314,198.815 105.5,164.5C 114.553,155.444 123.886,146.777 133.5,138.5 Z"/></g>
<g><path style="opacity:0.974" fill="#fd9800" d="M 226.5,140.5 C 249.752,140.249 259.585,151.582 256,174.5C 248.419,187.998 240.585,201.331 232.5,214.5C 225.837,204.322 219.337,193.989 213,183.5C 202.015,163.963 206.515,149.629 226.5,140.5 Z"/></g>
<g><path style="opacity:1" fill="#460101" d="M 133.5,147.5 C 135.017,147.511 136.184,148.177 137,149.5C 177.294,196.13 217.961,242.463 259,288.5C 259.667,289.167 259.667,289.833 259,290.5C 252.648,296.353 246.148,302.02 239.5,307.5C 198.186,260.352 156.686,213.352 115,166.5C 114.333,165.5 114.333,164.5 115,163.5C 121.332,158.267 127.498,152.934 133.5,147.5 Z"/></g>
<g><path style="opacity:1" fill="#460201" d="M 332.5,163.5 C 338.927,169.773 344.927,176.606 350.5,184C 316.619,212.581 282.285,240.248 247.5,267C 241.715,260.594 236.049,254.094 230.5,247.5C 264.57,219.481 298.57,191.481 332.5,163.5 Z"/></g>
<g><path style="opacity:0.945" fill="#f79300" d="M 133.5,241.5 C 136.731,243.22 139.564,245.553 142,248.5C 169,279.5 196,310.5 223,341.5C 224.062,342.899 225.395,343.899 227,344.5C 262.677,315.324 298.511,286.324 334.5,257.5C 343.022,267.521 351.356,277.688 359.5,288C 324.425,316.953 289.259,345.786 254,374.5C 253.333,375.167 253.333,375.833 254,376.5C 259.021,382.02 263.854,387.686 268.5,393.5C 259.043,401.787 249.71,410.287 240.5,419C 239.833,419.667 239.167,419.667 238.5,419C 233,412.833 227.5,406.667 222,400.5C 215.355,405.644 208.855,410.978 202.5,416.5C 193.818,406.48 185.484,396.147 177.5,385.5C 183.647,380.52 189.647,375.354 195.5,370C 165.314,335.982 135.314,301.815 105.5,267.5C 114.553,258.444 123.886,249.777 133.5,241.5 Z"/></g>
<g><path style="opacity:1" fill="#460101" d="M 133.5,250.5 C 134.496,250.414 135.329,250.748 136,251.5C 176.628,298.463 217.628,345.13 259,391.5C 259.667,392.167 259.667,392.833 259,393.5C 252.648,399.353 246.148,405.02 239.5,410.5C 198.186,363.352 156.686,316.352 115,269.5C 114.251,268.365 114.417,267.365 115.5,266.5C 121.573,261.149 127.573,255.816 133.5,250.5 Z"/></g>
<g><path style="opacity:1" fill="#460201" d="M 332.5,266.5 C 338.956,272.798 344.956,279.632 350.5,287C 316.619,315.581 282.285,343.248 247.5,370C 241.647,363.648 235.98,357.148 230.5,350.5C 264.835,322.825 298.835,294.825 332.5,266.5 Z"/></g>
<g><path style="opacity:1" fill="#480301" d="M 198.5,272.5 C 199.552,272.351 200.552,272.517 201.5,273C 207.167,279.333 212.833,285.667 218.5,292C 213.425,296.287 208.258,300.453 203,304.5C 197.309,297.644 191.809,290.644 186.5,283.5C 190.532,279.826 194.532,276.159 198.5,272.5 Z"/></g>
<g><path style="opacity:1" fill="#480301" d="M 198.5,375.5 C 200.39,375.297 201.89,375.963 203,377.5C 208.224,383.053 213.057,388.886 217.5,395C 213.319,399.843 208.485,404.009 203,407.5C 197.309,400.644 191.809,393.644 186.5,386.5C 190.532,382.826 194.532,379.159 198.5,375.5 Z"/></g>
</svg>